<?xml version="1.0" encoding="UTF-8"?>
<svg
   xmlns="http://www.w3.org/2000/svg"
   height="318.94415"
   width="741.81635">
  <g
     transform="translate(-84.236328,-656.44221)">
    <path
       d="m 254.95894,666.44732 c -1.22563,0.03 -2.44088,0.19665 -3.65039,0.43164 l 0.002,-0.004 c -1.61269,0.31328 -3.21586,0.74739 -4.81641,1.13867 -12.96358,3.16909 -23.6542,16.17806 -21.76757,29.9043 -0.27136,11.43572 0.12315,23.17366 -1.83008,34.48633 l -37.27149,70.74804 15.39649,25.99805 39.09765,-70.11328 c 6.07192,-7.5895 16.12788,-10.32734 24.51368,-14.6543 5.67827,-2.76279 11.91691,-4.59726 17.2539,-7.92383 8.97616,-8.78805 13.84599,-22.18169 12.36524,-34.66406 -0.2496,-2.99365 -3.31641,-1.38867 -3.31641,-1.38867 l -16.21289,12.0918 -16.13281,-8.42188 -5.01367,-12.29687 c 0,0 3.29754,-5.02106 5.08984,-5.77539 l 16.24023,-10.32032 c -2.24779,-7.14441 -12.23974,-8.85657 -18.71679,-9.21875 -0.41101,-0.023 -0.82192,-0.0276 -1.23047,-0.0176 z"
       fill="#069" />
    <path
       d="m 94.236328,965.38563 33.000002,0 53.50195,-102.38672 -14.72452,-25.01026 z"
       fill="#900" />
    <path
       d="m 168.67566,782.38636 -33.375,-63 -34.50001,0 105.75001,179.625 36,66.375 34.5,0 z"
       fill="#396" />
    <g
       fill="#484848">
      <path
         d="m 333.38392,817.30635 46.8,0 0,-19.92 -114.48,0 0,19.92 46.8,0 0,148.08 20.88,0 0,-148.08 z" />
      <path
         d="m 442.66517,965.38635 c 32.88,0 54.24,-24 54.24,-64.32 0,-40.56 -21.36,-64.08 -54.24,-64.08 -32.88,0 -54.24,24 -54.24,64.32 0,40.56 21.36,64.08 54.24,64.08 z m 0,-19.44 c -20.88,0 -33.12,-16.8 -33.12,-44.64 0,-28.56 12.24,-45.12 33.12,-45.12 20.88,0 33.12,17.04 33.12,44.88 0,28.08 -12.48,44.88 -33.12,44.88 z" />
      <path
         d="m 579.91767,965.38635 c 32.88,0 54.24,-24 54.24,-64.32 0,-40.56 -21.36,-64.08 -54.24,-64.08 -32.88,0 -54.24,24 -54.24,64.32 0,40.56 21.36,64.08 54.24,64.08 z m 0,-19.44 c -20.88,0 -33.12,-16.8 -33.12,-44.64 0,-28.56 12.24,-45.12 33.12,-45.12 20.88,0 33.12,17.04 33.12,44.88 0,28.08 -12.48,44.88 -33.12,44.88 z" />
      <path
         d="m 671.33017,962.50635 20.88,0 0,-173.28 -20.88,9.84 0,163.44 z" />
      <path
         d="m 772.37268,965.38635 c 26.64,0 43.68,-12.72 43.68,-34.8 0,-23.28 -17.52,-32.88 -39.84,-40.8 -13.68,-5.52 -25.92,-10.08 -25.92,-20.4 0,-8.64 7.92,-13.68 20.4,-13.68 13.2,0 21.84,6.24 27.12,11.76 l 14.4,-12 c -8.88,-10.56 -22.56,-18.48 -41.28,-18.48 -23.52,0 -41.28,12.24 -41.28,32.4 0,20.16 15.36,30 37.92,38.4 14.4,5.52 28.08,11.04 28.08,23.28 0,10.8 -9.84,15.6 -22.8,15.6 -13.2,0 -23.76,-7.92 -30,-14.64 l -14.88,12.72 c 9.6,12.24 26.4,20.64 44.4,20.64 z" />
    </g>
  </g>
</svg>
