<?xml version="1.0" encoding="UTF-8"?>
<svg
   xmlns="http://www.w3.org/2000/svg"
   height="318.94415"
   width="740.89435">
  <g
     transform="translate(-84.236328,-656.44221)">
    <path
       d="m 254.95894,666.44732 c -1.22563,0.03 -2.44088,0.19665 -3.65039,0.43164 l 0.002,-0.004 c -1.61269,0.31328 -3.21586,0.74739 -4.81641,1.13867 -12.96358,3.16909 -23.6542,16.17806 -21.76757,29.9043 -0.27136,11.43572 0.12315,23.17366 -1.83008,34.48633 l -37.27149,70.74804 15.39649,25.99805 39.09765,-70.11328 c 6.07192,-7.5895 16.12788,-10.32734 24.51368,-14.6543 5.67827,-2.76279 11.91691,-4.59726 17.2539,-7.92383 8.97616,-8.78805 13.84599,-22.18169 12.36524,-34.66406 -0.2496,-2.99365 -3.31641,-1.38867 -3.31641,-1.38867 l -16.21289,12.0918 -16.13281,-8.42188 -5.01367,-12.29687 c 0,0 3.29754,-5.02106 5.08984,-5.77539 l 16.24023,-10.32032 c -2.24779,-7.14441 -12.23974,-8.85657 -18.71679,-9.21875 -0.41101,-0.023 -0.82192,-0.0276 -1.23047,-0.0176 z"
       fill="#069" />
    <path
       d="m 94.236328,965.38563 33.000002,0 53.50195,-102.38672 -14.72452,-25.01026 z"
       fill="#900" />
    <path
       d="m 168.67566,782.38636 -33.375,-63 -34.50001,0 105.75001,179.625 36,66.375 34.5,0 z"
       fill="#396" />
    <g
       fill="#484848">
      <path
         d="m 309.48392,963.88562 21,0 0,-146.5 49.5,0 0,-17.5 -120,0 0,17.5 49.5,0 0,146.5 z" />
      <path
         d="m 441.11142,963.88562 c 29.75,0 56.25,-23.25 56.25,-63.5 0,-40.75 -26.5,-64 -56.25,-64 -29.75,0 -56.25,23.25 -56.25,64 0,40.25 26.5,63.5 56.25,63.5 z m 0,-17 c -20.75,0 -35,-18.75 -35,-46.5 0,-28 14.25,-47 35,-47 21,0 35,19 35,47 0,27.75 -14,46.5 -35,46.5 z" />
      <path
         d="m 580.04361,963.88562 c 29.75,0 56.25,-23.25 56.25,-63.5 0,-40.75 -26.5,-64 -56.25,-64 -29.75,0 -56.25,23.25 -56.25,64 0,40.25 26.5,63.5 56.25,63.5 z m 0,-17 c -20.75,0 -35,-18.75 -35,-46.5 0,-28 14.25,-47 35,-47 21,0 35,19 35,47 0,27.75 -14,46.5 -35,46.5 z" />
      <path
         d="m 693.4758,963.88562 c 5.5,0 9,-0.75 11.75,-2 l -2.75,-15.5 c -2.25,0.5 -3.25,0.5 -4.5,0.5 -3,0 -5.75,-2.5 -5.75,-9 l 0,-155 -20.5,0 0,153.5 c 0,17.75 6.25,27.5 21.75,27.5 z" />
      <path
         d="m 770.63065,963.88562 c 28.75,0 44.5,-16.5 44.5,-36.25 0,-23 -19.5,-30.25 -37,-36.75 -13.75,-5.25 -27,-9.5 -27,-21 0,-9.25 7,-17.5 22.25,-17.5 10.75,0 19.5,4.5 27.75,10.75 l 9.75,-13 c -9.25,-7.5 -22.5,-13.75 -37.75,-13.75 -26.25,0 -41.75,15 -41.75,34.5 0,20.5 19,28.75 36.25,35 13.25,5 27.75,10.5 27.75,23 0,10.5 -8,19 -24,19 -14.5,0 -25.25,-6 -35.75,-14.5 l -10.25,13.75 c 11.5,9.5 28,16.75 45.25,16.75 z" />
    </g>
  </g>
</svg>
